<svg width="543" height="543" viewBox="0 0 543 543" fill="none" xmlns="http://www.w3.org/2000/svg">
<path d="M247.898 55.7415V55.7415C256.659 64.2622 256.697 78.3216 247.982 86.889L228.907 105.64C211.928 122.331 209.773 148.954 223.845 168.159L236.523 185.46" stroke="url(#paint0_linear_6_2501)" stroke-width="2" stroke-linecap="round"/>
<path d="M256.155 74.2108V74.2108C285.629 84.2681 304.243 113.357 301.027 144.333L298.211 171.46" stroke="url(#paint1_linear_6_2501)" stroke-width="2" stroke-linecap="round"/>
<path d="M309.586 130.992L311.074 137.793C315.754 159.189 307.368 181.331 289.688 194.257L273.572 206.039C261.671 214.74 257.562 230.63 263.753 244.009V244.009C271.724 261.234 293.181 267.288 308.979 256.771L324.419 246.492" stroke="url(#paint2_linear_6_2501)" stroke-width="2" stroke-linecap="round"/>
<path d="M324.007 179.813L300.813 204.511C284.034 222.379 299.933 251.277 324.007 246.668V246.668" stroke="url(#paint3_linear_6_2501)" stroke-width="2" stroke-linecap="round"/>
<path d="M247.052 157.103L251.137 152.335C252.569 150.663 255.061 150.404 256.818 151.744V151.744C258.073 152.7 259.756 152.87 261.169 152.181L262.066 151.744C264.817 150.404 268.144 151.447 269.652 154.121L271.333 157.103" stroke="url(#paint4_linear_6_2501)" stroke-width="2" stroke-linecap="round"/>
<path d="M247.344 157.068V157.068C252.561 165.272 264.341 165.806 270.279 158.108L271.081 157.068" stroke="url(#paint5_linear_6_2501)" stroke-width="2" stroke-linecap="round"/>
<path d="M247.898 55.7415V55.7415C256.659 64.2622 256.697 78.3216 247.982 86.889L228.907 105.64C211.928 122.331 209.773 148.954 223.845 168.159L236.523 185.46" stroke="url(#paint6_linear_6_2501)" stroke-width="2" stroke-linecap="round"/>
<path d="M256.155 74.2108V74.2108C285.629 84.2681 304.243 113.357 301.027 144.333L298.211 171.46" stroke="url(#paint7_linear_6_2501)" stroke-width="2" stroke-linecap="round"/>
<path d="M309.586 130.992L311.074 137.793C315.754 159.189 307.368 181.331 289.688 194.257L273.572 206.039C261.671 214.74 257.562 230.63 263.753 244.009V244.009C271.724 261.234 293.181 267.288 308.979 256.771L324.419 246.492" stroke="url(#paint8_linear_6_2501)" stroke-width="2" stroke-linecap="round"/>
<path d="M324.007 179.813L300.813 204.511C284.034 222.379 299.933 251.277 324.007 246.668V246.668" stroke="url(#paint9_linear_6_2501)" stroke-width="2" stroke-linecap="round"/>
<path d="M247.052 157.103L251.137 152.335C252.569 150.663 255.061 150.404 256.818 151.744V151.744C258.073 152.7 259.756 152.87 261.169 152.181L262.066 151.744C264.817 150.404 268.144 151.447 269.652 154.121L271.333 157.103" stroke="url(#paint10_linear_6_2501)" stroke-width="2" stroke-linecap="round"/>
<path d="M247.344 157.068V157.068C252.561 165.272 264.341 165.806 270.279 158.108L271.081 157.068" stroke="url(#paint11_linear_6_2501)" stroke-width="2" stroke-linecap="round"/>
<path d="M247.898 55.7415V55.7415C256.659 64.2622 256.697 78.3216 247.982 86.889L228.907 105.64C211.928 122.331 209.773 148.954 223.845 168.159L236.523 185.46" stroke="url(#paint12_linear_6_2501)" stroke-width="2" stroke-linecap="round"/>
<path d="M256.155 74.2108V74.2108C285.629 84.2681 304.243 113.357 301.027 144.333L298.211 171.46" stroke="url(#paint13_linear_6_2501)" stroke-width="2" stroke-linecap="round"/>
<path d="M309.586 130.992L311.074 137.793C315.754 159.189 307.368 181.331 289.688 194.257L273.572 206.039C261.671 214.74 257.562 230.63 263.753 244.009V244.009C271.724 261.234 293.181 267.288 308.979 256.771L324.419 246.492" stroke="url(#paint14_linear_6_2501)" stroke-width="2" stroke-linecap="round"/>
<path d="M324.007 179.813L300.813 204.511C284.034 222.379 299.933 251.277 324.007 246.668V246.668" stroke="url(#paint15_linear_6_2501)" stroke-width="2" stroke-linecap="round"/>
<path fill-rule="evenodd" clip-rule="evenodd" d="M251.898 152.987C252.986 151.717 254.879 151.52 256.214 152.538C257.77 153.725 259.858 153.934 261.61 153.081L262.507 152.644C264.782 151.535 267.534 152.398 268.781 154.61L269.622 156.1C269.925 156.638 269.872 157.305 269.489 157.789C265.199 163.196 257.845 164.21 252.373 161.057C249.496 159.399 249.737 155.509 251.898 152.987ZM246.215 157.895C245.959 157.504 245.958 156.942 246.216 156.551C246.239 156.517 246.264 156.483 246.292 156.451L250.377 151.682C252.153 149.609 255.243 149.288 257.422 150.95C258.376 151.676 259.655 151.805 260.728 151.282L261.625 150.845C264.851 149.273 268.753 150.496 270.522 153.633L272.204 156.615C272.432 157.02 272.349 157.516 272.031 157.824C271.983 157.869 271.939 157.918 271.898 157.97L271.056 159.032C264.556 167.225 251.94 166.648 246.215 157.895Z" fill="url(#paint16_linear_6_2501)"/>
<path d="M256.214 152.538L255.911 152.936L256.214 152.538ZM261.61 153.081L261.391 152.631L261.61 153.081ZM262.507 152.644L262.726 153.093L262.507 152.644ZM268.781 154.61L268.346 154.855L268.781 154.61ZM246.292 156.451L246.671 156.776H246.671L246.292 156.451ZM250.377 151.682L249.997 151.357H249.997L250.377 151.682ZM257.422 150.95L257.119 151.347L257.422 150.95ZM260.728 151.282L260.509 150.832L260.509 150.832L260.728 151.282ZM261.625 150.845L261.844 151.294L261.625 150.845ZM270.522 153.633L270.958 153.387L270.522 153.633ZM272.204 156.615L272.639 156.369L272.639 156.369L272.204 156.615ZM271.056 159.032L270.664 158.721L271.056 159.032ZM272.031 157.824L272.378 158.183L272.031 157.824ZM246.216 156.551L245.799 156.276L246.216 156.551ZM252.373 161.057L252.124 161.49L252.373 161.057ZM256.517 152.141C254.973 150.963 252.78 151.189 251.518 152.662L252.278 153.312C253.192 152.245 254.785 152.077 255.911 152.936L256.517 152.141ZM261.391 152.631C259.81 153.402 257.924 153.213 256.517 152.141L255.911 152.936C257.616 154.236 259.906 154.467 261.829 153.53L261.391 152.631ZM262.288 152.194L261.391 152.631L261.829 153.53L262.726 153.093L262.288 152.194ZM269.217 154.364C267.84 151.923 264.802 150.969 262.288 152.194L262.726 153.093C264.762 152.101 267.228 152.872 268.346 154.855L269.217 154.364ZM270.057 155.854L269.217 154.364L268.346 154.855L269.186 156.346L270.057 155.854ZM252.124 161.49C257.798 164.761 265.428 163.712 269.88 158.099L269.097 157.478C264.969 162.681 257.892 163.66 252.623 160.624L252.124 161.49ZM246.633 156.827C246.645 156.809 246.657 156.793 246.671 156.776L245.912 156.126C245.871 156.174 245.833 156.224 245.799 156.276L246.633 156.827ZM246.671 156.776L250.757 152.007L249.997 151.357L245.912 156.126L246.671 156.776ZM250.757 152.007C252.359 150.137 255.149 149.845 257.119 151.347L257.726 150.552C255.337 148.73 251.947 149.081 249.997 151.357L250.757 152.007ZM257.119 151.347C258.222 152.188 259.703 152.337 260.947 151.731L260.509 150.832C259.606 151.272 258.529 151.165 257.726 150.552L257.119 151.347ZM260.947 151.731L261.844 151.294L261.406 150.395L260.509 150.832L260.947 151.731ZM261.844 151.294C264.831 149.839 268.447 150.97 270.087 153.878L270.958 153.387C269.06 150.021 264.871 148.707 261.406 150.395L261.844 151.294ZM270.087 153.878L271.768 156.861L272.639 156.369L270.958 153.387L270.087 153.878ZM271.768 156.861C271.883 157.064 271.841 157.311 271.683 157.464L272.378 158.183C272.857 157.72 272.982 156.977 272.639 156.369L271.768 156.861ZM271.506 157.659L270.664 158.721L271.447 159.342L272.29 158.28L271.506 157.659ZM270.664 158.721C264.376 166.647 252.172 166.089 246.634 157.622L245.797 158.169C251.708 167.207 264.735 167.803 271.447 159.342L270.664 158.721ZM271.683 157.464C271.621 157.525 271.561 157.59 271.506 157.659L272.29 158.28C272.317 158.246 272.346 158.214 272.378 158.183L271.683 157.464ZM245.799 156.276C245.43 156.834 245.432 157.612 245.797 158.169L246.634 157.622C246.486 157.396 246.486 157.049 246.633 156.827L245.799 156.276ZM252.623 160.624C251.358 159.895 250.773 158.682 250.746 157.336C250.72 155.976 251.269 154.489 252.278 153.312L251.518 152.662C250.366 154.007 249.715 155.726 249.746 157.356C249.779 158.999 250.511 160.561 252.124 161.49L252.623 160.624ZM269.186 156.346C269.389 156.706 269.354 157.154 269.097 157.478L269.88 158.099C270.39 157.457 270.46 156.569 270.057 155.854L269.186 156.346Z" fill="url(#paint17_linear_6_2501)"/>
<path fill-rule="evenodd" clip-rule="evenodd" d="M103.436 287.444C104.003 286.84 104.908 286.854 105.457 287.475L127.108 311.96L146.624 287.562C147.142 286.916 148.06 286.841 148.675 287.396C149.29 287.951 149.369 288.925 148.851 289.572L128.633 314.847V366.108C128.633 366.936 127.962 367.608 127.133 367.608C126.305 367.608 125.633 366.936 125.633 366.108V314.802L103.402 289.66C102.853 289.04 102.868 288.047 103.436 287.444Z" fill="url(#paint18_linear_6_2501)"/>
<path d="M226.599 327.609C226.599 346.998 211.542 362.609 193.099 362.609C174.656 362.609 159.599 346.998 159.599 327.609C159.599 308.219 174.656 292.609 193.099 292.609C211.542 292.609 226.599 308.219 226.599 327.609Z" stroke="url(#paint19_linear_6_2501)" stroke-width="3"/>
<line x1="378.489" y1="289.539" x2="378.489" y2="362.991" stroke="url(#paint20_linear_6_2501)" stroke-width="3" stroke-linecap="round"/>
<line x1="1.5" y1="-1.5" x2="45.3652" y2="-1.5" transform="matrix(0.999892 -0.0147172 0.0120774 0.999927 378.239 326.664)" stroke="url(#paint21_linear_6_2501)" stroke-width="3" stroke-linecap="round"/>
<line x1="1.5" y1="-1.5" x2="77.8212" y2="-1.5" transform="matrix(0.00787692 0.999969 -0.999954 0.00959875 424.474 288.039)" stroke="url(#paint22_linear_6_2501)" stroke-width="3" stroke-linecap="round"/>
<path fill-rule="evenodd" clip-rule="evenodd" d="M284.245 353.134C275.42 359.785 262.269 359.291 254.023 351.934C250.619 348.897 248.004 345.114 246.005 340.415C241.633 330.136 240.155 315.359 240.227 294.075C240.229 293.233 239.572 292.568 238.758 292.59C237.944 292.612 237.282 293.313 237.28 294.156C237.208 315.458 238.663 330.807 243.302 341.714C248.009 352.78 255.938 359.16 268.364 362.674C268.507 362.714 268.651 362.731 268.793 362.726C268.903 362.73 269.016 362.72 269.129 362.696C275.999 361.236 281.58 358.97 286.025 355.62C290.484 352.259 293.73 347.86 295.998 342.256C300.495 331.145 301.16 315.249 300.008 293.145C299.964 292.303 299.269 291.637 298.457 291.657C297.644 291.677 297.021 292.377 297.065 293.22C298.218 315.347 297.488 330.597 293.275 341.006C291.188 346.162 288.249 350.116 284.245 353.134Z" fill="url(#paint23_linear_6_2501)"/>
<path fill-rule="evenodd" clip-rule="evenodd" d="M103.436 287.444C104.003 286.84 104.908 286.854 105.457 287.475L127.108 311.96L146.624 287.562C147.142 286.916 148.06 286.841 148.675 287.396C149.29 287.951 149.369 288.925 148.851 289.572L128.633 314.847V366.108C128.633 366.936 127.962 367.608 127.133 367.608C126.305 367.608 125.633 366.936 125.633 366.108V314.802L103.402 289.66C102.853 289.04 102.868 288.047 103.436 287.444Z" fill="url(#paint24_linear_6_2501)"/>
<path d="M226.599 327.609C226.599 346.998 211.542 362.609 193.099 362.609C174.656 362.609 159.599 346.998 159.599 327.609C159.599 308.219 174.656 292.609 193.099 292.609C211.542 292.609 226.599 308.219 226.599 327.609Z" stroke="url(#paint25_linear_6_2501)" stroke-width="3"/>
<line x1="339.675" y1="290.939" x2="339.675" y2="364.78" stroke="url(#paint26_linear_6_2501)" stroke-width="3" stroke-linecap="round"/>
<path d="M309.976 288.97L368.083 288.97" stroke="url(#paint27_linear_6_2501)" stroke-width="3" stroke-linecap="round"/>
<line x1="378.489" y1="289.539" x2="378.489" y2="362.991" stroke="url(#paint28_linear_6_2501)" stroke-width="3" stroke-linecap="round"/>
<line x1="1.5" y1="-1.5" x2="45.3652" y2="-1.5" transform="matrix(0.999892 -0.0147172 0.0120774 0.999927 378.239 326.664)" stroke="url(#paint29_linear_6_2501)" stroke-width="3" stroke-linecap="round"/>
<line x1="1.5" y1="-1.5" x2="77.8212" y2="-1.5" transform="matrix(0.00787692 0.999969 -0.999954 0.00959875 424.474 288.039)" stroke="url(#paint30_linear_6_2501)" stroke-width="3" stroke-linecap="round"/>
<path fill-rule="evenodd" clip-rule="evenodd" d="M284.245 353.134C275.42 359.785 262.269 359.291 254.023 351.934C250.619 348.897 248.004 345.114 246.005 340.415C241.633 330.136 240.155 315.359 240.227 294.075C240.229 293.233 239.572 292.568 238.758 292.59C237.944 292.612 237.282 293.313 237.28 294.156C237.208 315.458 238.663 330.807 243.302 341.714C248.009 352.78 255.938 359.16 268.364 362.674C268.507 362.714 268.651 362.731 268.793 362.726C268.903 362.73 269.016 362.72 269.129 362.696C275.999 361.236 281.58 358.97 286.025 355.62C290.484 352.259 293.73 347.86 295.998 342.256C300.495 331.145 301.16 315.249 300.008 293.145C299.964 292.303 299.269 291.637 298.457 291.657C297.644 291.677 297.021 292.377 297.065 293.22C298.218 315.347 297.488 330.597 293.275 341.006C291.188 346.162 288.249 350.116 284.245 353.134Z" fill="url(#paint31_linear_6_2501)"/>
<path fill-rule="evenodd" clip-rule="evenodd" d="M103.436 287.444C104.003 286.84 104.908 286.854 105.457 287.475L127.108 311.96L146.624 287.562C147.142 286.916 148.06 286.841 148.675 287.396C149.29 287.951 149.369 288.925 148.851 289.572L128.633 314.847V366.108C128.633 366.936 127.962 367.608 127.133 367.608C126.305 367.608 125.633 366.936 125.633 366.108V314.802L103.402 289.66C102.853 289.04 102.868 288.047 103.436 287.444Z" fill="url(#paint32_linear_6_2501)"/>
<path d="M226.599 327.609C226.599 346.998 211.542 362.609 193.099 362.609C174.656 362.609 159.599 346.998 159.599 327.609C159.599 308.219 174.656 292.609 193.099 292.609C211.542 292.609 226.599 308.219 226.599 327.609Z" stroke="url(#paint33_linear_6_2501)" stroke-width="3"/>
<line x1="339.675" y1="290.939" x2="339.675" y2="364.78" stroke="url(#paint34_linear_6_2501)" stroke-width="3" stroke-linecap="round"/>
<path d="M309.976 288.97L368.083 288.97" stroke="url(#paint35_linear_6_2501)" stroke-width="3" stroke-linecap="round"/>
<line x1="378.489" y1="289.539" x2="378.489" y2="362.991" stroke="url(#paint36_linear_6_2501)" stroke-width="3" stroke-linecap="round"/>
<line x1="1.5" y1="-1.5" x2="45.3652" y2="-1.5" transform="matrix(0.999892 -0.0147172 0.0120774 0.999927 378.239 326.664)" stroke="url(#paint37_linear_6_2501)" stroke-width="3" stroke-linecap="round"/>
<line x1="1.5" y1="-1.5" x2="77.8212" y2="-1.5" transform="matrix(0.00787692 0.999969 -0.999954 0.00959875 424.474 288.039)" stroke="url(#paint38_linear_6_2501)" stroke-width="3" stroke-linecap="round"/>
<path fill-rule="evenodd" clip-rule="evenodd" d="M284.245 353.134C275.42 359.785 262.269 359.291 254.023 351.934C250.619 348.897 248.004 345.114 246.005 340.415C241.633 330.136 240.155 315.359 240.227 294.075C240.229 293.233 239.572 292.568 238.758 292.59C237.944 292.612 237.282 293.313 237.28 294.156C237.208 315.458 238.663 330.807 243.302 341.714C248.009 352.78 255.938 359.16 268.364 362.674C268.507 362.714 268.651 362.731 268.793 362.726C268.903 362.73 269.016 362.72 269.129 362.696C275.999 361.236 281.58 358.97 286.025 355.62C290.484 352.259 293.73 347.86 295.998 342.256C300.495 331.145 301.16 315.249 300.008 293.145C299.964 292.303 299.269 291.637 298.457 291.657C297.644 291.677 297.021 292.377 297.065 293.22C298.218 315.347 297.488 330.597 293.275 341.006C291.188 346.162 288.249 350.116 284.245 353.134Z" fill="url(#paint39_linear_6_2501)"/>
<path fill-rule="evenodd" clip-rule="evenodd" d="M195.873 410L195 470.727L195.006 470.727L195 471.276L229.82 471.732L229.832 470.732L196.006 470.289L196.873 410.016L195.873 410Z" fill="url(#paint40_linear_6_2501)"/>
<path d="M195 470.727L193.5 470.705L193.479 472.203L194.976 472.227L195 470.727ZM195.873 410L195.897 408.5L194.395 408.476L194.373 409.978L195.873 410ZM195.006 470.727L196.506 470.745L196.524 469.251L195.031 469.227L195.006 470.727ZM195 471.276L193.5 471.258L193.483 472.756L194.98 472.776L195 471.276ZM229.82 471.732L229.801 473.232L231.303 473.252L231.32 471.75L229.82 471.732ZM229.832 470.732L231.332 470.75L231.349 469.252L229.852 469.233L229.832 470.732ZM196.006 470.289L194.507 470.267L194.485 471.769L195.987 471.789L196.006 470.289ZM196.873 410.016L198.373 410.038L198.394 408.541L196.897 408.516L196.873 410.016ZM196.5 470.749L197.373 410.022L194.373 409.978L193.5 470.705L196.5 470.749ZM195.031 469.227L195.024 469.227L194.976 472.227L194.982 472.227L195.031 469.227ZM196.5 471.293L196.506 470.745L193.506 470.71L193.5 471.258L196.5 471.293ZM229.84 470.232L195.02 469.776L194.98 472.776L229.801 473.232L229.84 470.232ZM228.332 470.715L228.32 471.715L231.32 471.75L231.332 470.75L228.332 470.715ZM195.987 471.789L229.812 472.232L229.852 469.233L196.026 468.789L195.987 471.789ZM195.373 409.995L194.507 470.267L197.506 470.31L198.373 410.038L195.373 409.995ZM195.849 411.5L196.848 411.516L196.897 408.516L195.897 408.5L195.849 411.5Z" fill="url(#paint41_linear_6_2501)"/>
<path fill-rule="evenodd" clip-rule="evenodd" d="M271.569 411.078C271.678 410.824 271.968 410.716 272.217 410.836C272.44 410.944 272.554 411.199 272.496 411.434L273.061 411.161L298.946 471.556L298.046 471.992L287.53 447.456C287.439 447.557 287.307 447.62 287.16 447.62H257.549V446.62H287.16L287.172 446.62L272.298 411.915L246.979 470.99C246.87 471.244 246.58 471.352 246.332 471.232C246.083 471.111 245.97 470.808 246.078 470.554L271.569 411.078Z" fill="url(#paint42_linear_6_2501)"/>
<path d="M272.217 410.836L271.564 412.187L271.564 412.187L272.217 410.836ZM271.569 411.078L272.948 411.669V411.669L271.569 411.078ZM272.496 411.434L271.039 411.077C270.901 411.641 271.101 412.234 271.553 412.6C272.004 412.965 272.626 413.037 273.149 412.784L272.496 411.434ZM273.061 411.161L274.44 410.57C274.279 410.193 273.97 409.899 273.587 409.756C273.203 409.612 272.777 409.632 272.408 409.81L273.061 411.161ZM298.946 471.556L299.599 472.907C300.321 472.558 300.641 471.702 300.325 470.965L298.946 471.556ZM298.046 471.992L296.667 472.582C296.829 472.959 297.137 473.253 297.521 473.397C297.904 473.54 298.33 473.52 298.699 473.342L298.046 471.992ZM287.53 447.456L288.909 446.865C288.708 446.396 288.282 446.061 287.779 445.977C287.275 445.893 286.763 446.07 286.42 446.448L287.53 447.456ZM257.549 447.62H256.049C256.049 448.449 256.72 449.12 257.549 449.12V447.62ZM257.549 446.62V445.12C256.72 445.12 256.049 445.792 256.049 446.62H257.549ZM287.16 446.62L287.178 445.12C287.172 445.12 287.166 445.12 287.16 445.12V446.62ZM287.172 446.62L287.154 448.12C287.662 448.126 288.138 447.875 288.419 447.454C288.701 447.032 288.751 446.496 288.551 446.03L287.172 446.62ZM272.298 411.915L273.676 411.324C273.44 410.773 272.898 410.415 272.298 410.415C271.698 410.415 271.155 410.773 270.919 411.324L272.298 411.915ZM246.979 470.99L248.357 471.581L248.357 471.581L246.979 470.99ZM246.332 471.232L245.679 472.582H245.679L246.332 471.232ZM246.078 470.554L247.457 471.145L247.457 471.145L246.078 470.554ZM272.87 409.486C271.851 408.993 270.636 409.447 270.191 410.487L272.948 411.669C272.72 412.201 272.085 412.439 271.564 412.187L272.87 409.486ZM273.953 411.791C274.175 410.887 273.747 409.91 272.87 409.486L271.564 412.187C271.132 411.978 270.933 411.511 271.039 411.077L273.953 411.791ZM272.408 409.81L271.843 410.084L273.149 412.784L273.714 412.511L272.408 409.81ZM300.325 470.965L274.44 410.57L271.683 411.752L297.567 472.147L300.325 470.965ZM298.699 473.342L299.599 472.907L298.293 470.206L297.393 470.641L298.699 473.342ZM286.152 448.047L296.667 472.582L299.425 471.401L288.909 446.865L286.152 448.047ZM287.16 449.12C287.747 449.12 288.277 448.865 288.641 448.465L286.42 446.448C286.601 446.249 286.867 446.12 287.16 446.12V449.12ZM257.549 449.12H287.16V446.12H257.549V449.12ZM256.049 446.62V447.62H259.049V446.62H256.049ZM287.16 445.12H257.549V448.12H287.16V445.12ZM287.19 445.121L287.178 445.12L287.142 448.12L287.154 448.12L287.19 445.121ZM270.919 412.506L285.793 447.211L288.551 446.03L273.676 411.324L270.919 412.506ZM248.357 471.581L273.676 412.506L270.919 411.324L245.6 470.399L248.357 471.581ZM245.679 472.582C246.697 473.075 247.912 472.621 248.357 471.581L245.6 470.399C245.828 469.867 246.463 469.629 246.985 469.881L245.679 472.582ZM244.7 469.964C244.275 470.954 244.708 472.113 245.679 472.582L246.985 469.881C247.458 470.11 247.664 470.662 247.457 471.145L244.7 469.964ZM270.191 410.487L244.7 469.964L247.457 471.145L272.948 411.669L270.191 410.487Z" fill="url(#paint43_linear_6_2501)"/>
<path fill-rule="evenodd" clip-rule="evenodd" d="M321.718 414.676C330.33 414.39 336.202 415.381 339.94 417.373C341.929 418.433 343.295 419.767 344.177 421.346C345.064 422.933 345.513 424.863 345.513 427.185C345.513 427.663 345.518 428.118 345.523 428.553C345.541 430.032 345.555 431.285 345.35 432.466C345.106 433.874 344.562 435.035 343.293 436.038C341.958 437.092 339.707 438.061 335.856 438.752C332.432 439.366 327.849 439.742 321.718 439.816V414.676ZM319.387 412.234L319.362 411.777C329.321 411.23 336.557 412.17 341.351 414.726C343.782 416.021 345.599 417.74 346.796 419.882C347.988 422.016 348.513 424.477 348.513 427.185C348.513 427.564 348.518 427.953 348.523 428.349V428.349V428.349C348.542 429.875 348.563 431.498 348.306 432.978C347.962 434.961 347.112 436.843 345.153 438.391C343.305 439.852 340.583 440.924 336.67 441.653C339.78 442.045 342.413 442.662 344.594 443.53C347.359 444.63 349.478 446.166 350.893 448.232C352.309 450.299 352.926 452.76 352.926 455.545L352.926 455.72C352.927 459.619 352.928 464.901 348.381 468.64C343.886 472.336 335.34 474.204 319.315 472.816L319.372 472.154H318.718V412.234H319.387ZM321.718 469.996V444.218C331.969 443.848 338.996 444.53 343.484 446.317C345.847 447.257 347.421 448.472 348.418 449.927C349.413 451.38 349.926 453.209 349.926 455.545C349.926 459.657 349.855 463.544 346.475 466.323C343.136 469.069 336.206 471.023 321.718 469.996Z" fill="url(#paint44_linear_6_2501)"/>
<circle cx="271.5" cy="271.5" r="267.5" stroke="url(#paint45_linear_6_2501)" stroke-width="8"/>
<path d="M516 271C516 405.209 407.649 514 274 514C140.351 514 32 405.209 32 271C32 136.791 140.351 28 274 28C407.649 28 516 136.791 516 271Z" stroke="url(#paint46_linear_6_2501)" stroke-width="2"/>
<path d="M247.898 55.7415V55.7415C256.659 64.2622 256.697 78.3216 247.982 86.889L228.907 105.64C211.928 122.331 209.773 148.954 223.845 168.159L236.523 185.46" stroke="url(#paint47_linear_6_2501)" stroke-width="2" stroke-linecap="round"/>
<path d="M256.155 74.2108V74.2108C285.629 84.2681 304.243 113.357 301.027 144.333L298.211 171.46" stroke="url(#paint48_linear_6_2501)" stroke-width="2" stroke-linecap="round"/>
<path d="M309.586 130.992L311.074 137.793C315.754 159.189 307.368 181.331 289.688 194.257L273.572 206.039C261.671 214.74 257.562 230.63 263.753 244.009V244.009C271.724 261.234 293.181 267.288 308.979 256.771L324.419 246.492" stroke="url(#paint49_linear_6_2501)" stroke-width="2" stroke-linecap="round"/>
<path d="M324.007 179.813L300.813 204.511C284.034 222.379 299.933 251.277 324.007 246.668V246.668" stroke="url(#paint50_linear_6_2501)" stroke-width="2" stroke-linecap="round"/>
<path d="M247.052 157.103L251.137 152.335C252.569 150.663 255.061 150.404 256.818 151.744V151.744C258.073 152.7 259.756 152.87 261.169 152.181L262.066 151.744C264.817 150.404 268.144 151.447 269.652 154.121L271.333 157.103" stroke="url(#paint51_linear_6_2501)" stroke-width="2" stroke-linecap="round"/>
<path d="M247.344 157.068V157.068C252.561 165.272 264.341 165.806 270.279 158.108L271.081 157.068" stroke="url(#paint52_linear_6_2501)" stroke-width="2" stroke-linecap="round"/>
<path d="M247.898 55.7415V55.7415C256.659 64.2622 256.697 78.3216 247.982 86.889L228.907 105.64C211.928 122.331 209.773 148.954 223.845 168.159L236.523 185.46" stroke="url(#paint53_linear_6_2501)" stroke-width="2" stroke-linecap="round"/>
<path d="M256.155 74.2108V74.2108C285.629 84.2681 304.243 113.357 301.027 144.333L298.211 171.46" stroke="url(#paint54_linear_6_2501)" stroke-width="2" stroke-linecap="round"/>
<path d="M309.586 130.992L311.074 137.793C315.754 159.189 307.368 181.331 289.688 194.257L273.572 206.039C261.671 214.74 257.562 230.63 263.753 244.009V244.009C271.724 261.234 293.181 267.288 308.979 256.771L324.419 246.492" stroke="url(#paint55_linear_6_2501)" stroke-width="2" stroke-linecap="round"/>
<path d="M324.007 179.813L300.813 204.511C284.034 222.379 299.933 251.277 324.007 246.668V246.668" stroke="url(#paint56_linear_6_2501)" stroke-width="2" stroke-linecap="round"/>
<path d="M247.052 157.103L251.137 152.335C252.569 150.663 255.061 150.404 256.818 151.744V151.744C258.073 152.7 259.756 152.87 261.169 152.181L262.066 151.744C264.817 150.404 268.144 151.447 269.652 154.121L271.333 157.103" stroke="url(#paint57_linear_6_2501)" stroke-width="2" stroke-linecap="round"/>
<path d="M247.344 157.068V157.068C252.561 165.272 264.341 165.806 270.279 158.108L271.081 157.068" stroke="url(#paint58_linear_6_2501)" stroke-width="2" stroke-linecap="round"/>
<path d="M247.898 55.7415V55.7415C256.659 64.2622 256.697 78.3216 247.982 86.889L228.907 105.64C211.928 122.331 209.773 148.954 223.845 168.159L236.523 185.46" stroke="url(#paint59_linear_6_2501)" stroke-width="2" stroke-linecap="round"/>
<path d="M256.155 74.2108V74.2108C285.629 84.2681 304.243 113.357 301.027 144.333L298.211 171.46" stroke="url(#paint60_linear_6_2501)" stroke-width="2" stroke-linecap="round"/>
<path d="M309.586 130.992L311.074 137.793C315.754 159.189 307.368 181.331 289.688 194.257L273.572 206.039C261.671 214.74 257.562 230.63 263.753 244.009V244.009C271.724 261.234 293.181 267.288 308.979 256.771L324.419 246.492" stroke="url(#paint61_linear_6_2501)" stroke-width="2" stroke-linecap="round"/>
<path d="M324.007 179.813L300.813 204.511C284.034 222.379 299.933 251.277 324.007 246.668V246.668" stroke="url(#paint62_linear_6_2501)" stroke-width="2" stroke-linecap="round"/>
<path fill-rule="evenodd" clip-rule="evenodd" d="M251.898 152.987C252.986 151.717 254.879 151.52 256.214 152.538C257.77 153.724 259.858 153.934 261.61 153.081L262.507 152.643C264.782 151.535 267.534 152.397 268.781 154.61L269.622 156.1C269.925 156.638 269.872 157.305 269.489 157.789C265.199 163.196 257.845 164.21 252.373 161.057C249.496 159.399 249.737 155.509 251.898 152.987ZM246.215 157.895C245.959 157.504 245.958 156.942 246.216 156.551C246.239 156.517 246.264 156.483 246.292 156.451L250.377 151.682C252.153 149.609 255.243 149.288 257.422 150.949C258.376 151.676 259.655 151.805 260.728 151.282L261.625 150.845C264.851 149.273 268.753 150.496 270.522 153.633L272.204 156.615C272.432 157.02 272.349 157.516 272.031 157.823C271.983 157.869 271.939 157.918 271.898 157.969L271.056 159.032C264.556 167.225 251.94 166.648 246.215 157.895Z" fill="url(#paint63_linear_6_2501)"/>
<path d="M256.214 152.538L255.911 152.936L256.214 152.538ZM261.61 153.081L261.391 152.631L261.391 152.631L261.61 153.081ZM262.507 152.643L262.726 153.093L262.507 152.643ZM268.781 154.61L268.346 154.855L268.781 154.61ZM246.292 156.451L246.671 156.776H246.671L246.292 156.451ZM250.377 151.682L249.997 151.357L249.997 151.357L250.377 151.682ZM257.422 150.949L257.119 151.347L257.422 150.949ZM260.728 151.282L260.509 150.832L260.509 150.832L260.728 151.282ZM261.625 150.845L261.844 151.294V151.294L261.625 150.845ZM270.522 153.633L270.958 153.387V153.387L270.522 153.633ZM272.204 156.615L272.639 156.369V156.369L272.204 156.615ZM271.056 159.032L270.664 158.721V158.721L271.056 159.032ZM272.031 157.823L272.378 158.183L272.031 157.823ZM246.216 156.551L245.799 156.276L246.216 156.551ZM252.373 161.057L252.124 161.49L252.373 161.057ZM256.517 152.141C254.973 150.963 252.78 151.189 251.518 152.662L252.278 153.312C253.192 152.245 254.785 152.077 255.911 152.936L256.517 152.141ZM261.391 152.631C259.81 153.402 257.924 153.213 256.517 152.141L255.911 152.936C257.616 154.236 259.906 154.467 261.829 153.53L261.391 152.631ZM262.288 152.194L261.391 152.631L261.829 153.53L262.726 153.093L262.288 152.194ZM269.217 154.364C267.84 151.923 264.802 150.969 262.288 152.194L262.726 153.093C264.762 152.101 267.228 152.872 268.346 154.855L269.217 154.364ZM270.057 155.854L269.217 154.364L268.346 154.855L269.186 156.346L270.057 155.854ZM252.124 161.49C257.798 164.76 265.428 163.712 269.88 158.099L269.097 157.478C264.969 162.681 257.892 163.66 252.623 160.624L252.124 161.49ZM246.633 156.826C246.645 156.809 246.657 156.792 246.671 156.776L245.912 156.126C245.871 156.174 245.833 156.224 245.799 156.276L246.633 156.826ZM246.671 156.776L250.757 152.007L249.997 151.357L245.912 156.126L246.671 156.776ZM250.757 152.007C252.359 150.137 255.149 149.845 257.119 151.347L257.726 150.552C255.337 148.73 251.947 149.081 249.997 151.357L250.757 152.007ZM257.119 151.347C258.222 152.188 259.703 152.337 260.947 151.731L260.509 150.832C259.606 151.272 258.529 151.165 257.726 150.552L257.119 151.347ZM260.947 151.731L261.844 151.294L261.406 150.395L260.509 150.832L260.947 151.731ZM261.844 151.294C264.831 149.839 268.447 150.97 270.087 153.878L270.958 153.387C269.06 150.021 264.871 148.707 261.406 150.395L261.844 151.294ZM270.087 153.878L271.768 156.86L272.639 156.369L270.958 153.387L270.087 153.878ZM271.768 156.86C271.883 157.064 271.841 157.311 271.683 157.464L272.378 158.183C272.857 157.72 272.982 156.977 272.639 156.369L271.768 156.86ZM271.506 157.659L270.664 158.721L271.447 159.342L272.29 158.28L271.506 157.659ZM270.664 158.721C264.376 166.647 252.172 166.089 246.634 157.622L245.797 158.169C251.708 167.207 264.735 167.803 271.447 159.342L270.664 158.721ZM271.683 157.464C271.621 157.524 271.561 157.59 271.506 157.659L272.29 158.28C272.317 158.246 272.346 158.214 272.378 158.183L271.683 157.464ZM245.799 156.276C245.43 156.834 245.432 157.612 245.797 158.169L246.634 157.622C246.486 157.396 246.486 157.049 246.633 156.826L245.799 156.276ZM252.623 160.624C251.358 159.895 250.773 158.682 250.746 157.336C250.72 155.976 251.269 154.489 252.278 153.312L251.518 152.662C250.366 154.007 249.715 155.726 249.746 157.356C249.779 158.999 250.511 160.561 252.124 161.49L252.623 160.624ZM269.186 156.346C269.389 156.706 269.354 157.154 269.097 157.478L269.88 158.099C270.39 157.457 270.46 156.569 270.057 155.854L269.186 156.346Z" fill="url(#paint64_linear_6_2501)"/>
<path fill-rule="evenodd" clip-rule="evenodd" d="M103.436 287.444C104.003 286.84 104.908 286.854 105.457 287.475L127.108 311.96L146.624 287.562C147.142 286.916 148.06 286.841 148.675 287.396C149.29 287.951 149.369 288.925 148.851 289.572L128.633 314.847V366.108C128.633 366.936 127.962 367.608 127.133 367.608C126.305 367.608 125.633 366.936 125.633 366.108V314.802L103.402 289.66C102.853 289.04 102.868 288.047 103.436 287.444Z" fill="url(#paint65_linear_6_2501)"/>
<path d="M226.599 327.609C226.599 346.998 211.542 362.609 193.099 362.609C174.656 362.609 159.599 346.998 159.599 327.609C159.599 308.219 174.656 292.609 193.099 292.609C211.542 292.609 226.599 308.219 226.599 327.609Z" stroke="url(#paint66_linear_6_2501)" stroke-width="3"/>
<line x1="378.489" y1="289.539" x2="378.489" y2="362.991" stroke="url(#paint67_linear_6_2501)" stroke-width="3" stroke-linecap="round"/>
<line x1="1.5" y1="-1.5" x2="45.3652" y2="-1.5" transform="matrix(0.999892 -0.0147172 0.0120774 0.999927 378.239 326.664)" stroke="url(#paint68_linear_6_2501)" stroke-width="3" stroke-linecap="round"/>
<line x1="1.5" y1="-1.5" x2="77.8212" y2="-1.5" transform="matrix(0.00787692 0.999969 -0.999954 0.00959875 424.474 288.039)" stroke="url(#paint69_linear_6_2501)" stroke-width="3" stroke-linecap="round"/>
<path fill-rule="evenodd" clip-rule="evenodd" d="M284.245 353.134C275.42 359.785 262.269 359.291 254.023 351.934C250.619 348.897 248.004 345.114 246.005 340.415C241.633 330.136 240.155 315.359 240.227 294.075C240.229 293.233 239.572 292.568 238.758 292.59C237.944 292.612 237.282 293.313 237.28 294.156C237.208 315.458 238.663 330.807 243.302 341.714C248.009 352.78 255.938 359.16 268.364 362.674C268.507 362.714 268.651 362.731 268.793 362.726C268.903 362.73 269.016 362.72 269.129 362.696C275.999 361.236 281.58 358.97 286.025 355.62C290.484 352.259 293.73 347.86 295.998 342.256C300.495 331.145 301.16 315.249 300.008 293.145C299.964 292.303 299.269 291.637 298.457 291.657C297.644 291.677 297.021 292.377 297.065 293.22C298.218 315.347 297.488 330.597 293.275 341.006C291.188 346.162 288.249 350.116 284.245 353.134Z" fill="url(#paint70_linear_6_2501)"/>
<path fill-rule="evenodd" clip-rule="evenodd" d="M103.436 287.444C104.003 286.84 104.908 286.854 105.457 287.475L127.108 311.96L146.624 287.562C147.142 286.916 148.06 286.841 148.675 287.396C149.29 287.951 149.369 288.925 148.851 289.572L128.633 314.847V366.108C128.633 366.936 127.962 367.608 127.133 367.608C126.305 367.608 125.633 366.936 125.633 366.108V314.802L103.402 289.66C102.853 289.04 102.868 288.047 103.436 287.444Z" fill="url(#paint71_linear_6_2501)"/>
<path d="M226.599 327.609C226.599 346.998 211.542 362.609 193.099 362.609C174.656 362.609 159.599 346.998 159.599 327.609C159.599 308.219 174.656 292.609 193.099 292.609C211.542 292.609 226.599 308.219 226.599 327.609Z" stroke="url(#paint72_linear_6_2501)" stroke-width="3"/>
<line x1="339.675" y1="290.939" x2="339.675" y2="364.78" stroke="url(#paint73_linear_6_2501)" stroke-width="3" stroke-linecap="round"/>
<path d="M309.976 288.97L368.083 288.97" stroke="url(#paint74_linear_6_2501)" stroke-width="3" stroke-linecap="round"/>
<line x1="378.489" y1="289.539" x2="378.489" y2="362.991" stroke="url(#paint75_linear_6_2501)" stroke-width="3" stroke-linecap="round"/>
<line x1="1.5" y1="-1.5" x2="45.3652" y2="-1.5" transform="matrix(0.999892 -0.0147172 0.0120774 0.999927 378.239 326.664)" stroke="url(#paint76_linear_6_2501)" stroke-width="3" stroke-linecap="round"/>
<line x1="1.5" y1="-1.5" x2="77.8212" y2="-1.5" transform="matrix(0.00787692 0.999969 -0.999954 0.00959875 424.474 288.039)" stroke="url(#paint77_linear_6_2501)" stroke-width="3" stroke-linecap="round"/>
<path fill-rule="evenodd" clip-rule="evenodd" d="M284.245 353.134C275.42 359.785 262.269 359.291 254.023 351.934C250.619 348.897 248.004 345.114 246.005 340.415C241.633 330.136 240.155 315.359 240.227 294.075C240.229 293.233 239.572 292.568 238.758 292.59C237.944 292.612 237.282 293.313 237.28 294.156C237.208 315.458 238.663 330.807 243.302 341.714C248.009 352.78 255.938 359.16 268.364 362.674C268.507 362.714 268.651 362.731 268.793 362.726C268.903 362.73 269.016 362.72 269.129 362.696C275.999 361.236 281.58 358.97 286.025 355.62C290.484 352.259 293.73 347.86 295.998 342.256C300.495 331.145 301.16 315.249 300.008 293.145C299.964 292.303 299.269 291.637 298.457 291.657C297.644 291.677 297.021 292.377 297.065 293.22C298.218 315.347 297.488 330.597 293.275 341.006C291.188 346.162 288.249 350.116 284.245 353.134Z" fill="url(#paint78_linear_6_2501)"/>
<path fill-rule="evenodd" clip-rule="evenodd" d="M103.436 287.444C104.003 286.84 104.908 286.854 105.457 287.475L127.108 311.96L146.624 287.562C147.142 286.916 148.06 286.841 148.675 287.396C149.29 287.951 149.369 288.925 148.851 289.572L128.633 314.847V366.108C128.633 366.936 127.962 367.608 127.133 367.608C126.305 367.608 125.633 366.936 125.633 366.108V314.802L103.402 289.66C102.853 289.04 102.868 288.047 103.436 287.444Z" fill="url(#paint79_linear_6_2501)"/>
<path d="M226.599 327.609C226.599 346.998 211.542 362.609 193.099 362.609C174.656 362.609 159.599 346.998 159.599 327.609C159.599 308.219 174.656 292.609 193.099 292.609C211.542 292.609 226.599 308.219 226.599 327.609Z" stroke="url(#paint80_linear_6_2501)" stroke-width="3"/>
<line x1="339.675" y1="290.939" x2="339.675" y2="364.78" stroke="url(#paint81_linear_6_2501)" stroke-width="3" stroke-linecap="round"/>
<path d="M309.976 288.97L368.083 288.97" stroke="url(#paint82_linear_6_2501)" stroke-width="3" stroke-linecap="round"/>
<line x1="378.489" y1="289.539" x2="378.489" y2="362.991" stroke="url(#paint83_linear_6_2501)" stroke-width="3" stroke-linecap="round"/>
<line x1="1.5" y1="-1.5" x2="45.3652" y2="-1.5" transform="matrix(0.999892 -0.0147172 0.0120774 0.999927 378.239 326.664)" stroke="url(#paint84_linear_6_2501)" stroke-width="3" stroke-linecap="round"/>
<line x1="1.5" y1="-1.5" x2="77.8212" y2="-1.5" transform="matrix(0.00787692 0.999969 -0.999954 0.00959875 424.474 288.039)" stroke="url(#paint85_linear_6_2501)" stroke-width="3" stroke-linecap="round"/>
<path fill-rule="evenodd" clip-rule="evenodd" d="M284.245 353.134C275.42 359.785 262.269 359.291 254.023 351.934C250.619 348.897 248.004 345.114 246.005 340.415C241.633 330.136 240.155 315.359 240.227 294.075C240.229 293.233 239.572 292.568 238.758 292.59C237.944 292.612 237.282 293.313 237.28 294.156C237.208 315.458 238.663 330.807 243.302 341.714C248.009 352.78 255.938 359.16 268.364 362.674C268.507 362.714 268.651 362.731 268.793 362.726C268.903 362.73 269.016 362.72 269.129 362.696C275.999 361.236 281.58 358.97 286.025 355.62C290.484 352.259 293.73 347.86 295.998 342.256C300.495 331.145 301.16 315.249 300.008 293.145C299.964 292.303 299.269 291.637 298.457 291.657C297.644 291.677 297.021 292.377 297.065 293.22C298.218 315.347 297.488 330.597 293.275 341.006C291.188 346.162 288.249 350.116 284.245 353.134Z" fill="url(#paint86_linear_6_2501)"/>
<path fill-rule="evenodd" clip-rule="evenodd" d="M195.873 410L195 470.727L195.006 470.727L195 471.276L229.82 471.732L229.832 470.732L196.006 470.289L196.873 410.016L195.873 410Z" fill="url(#paint87_linear_6_2501)"/>
<path d="M195 470.727L193.5 470.705L193.479 472.203L194.976 472.227L195 470.727ZM195.873 410L195.897 408.5L194.395 408.476L194.373 409.978L195.873 410ZM195.006 470.727L196.506 470.745L196.524 469.251L195.031 469.227L195.006 470.727ZM195 471.276L193.5 471.258L193.483 472.756L194.98 472.776L195 471.276ZM229.82 471.732L229.801 473.232L231.303 473.252L231.32 471.75L229.82 471.732ZM229.832 470.732L231.332 470.75L231.349 469.252L229.852 469.233L229.832 470.732ZM196.006 470.289L194.507 470.267L194.485 471.769L195.987 471.789L196.006 470.289ZM196.873 410.016L198.373 410.038L198.394 408.541L196.897 408.516L196.873 410.016ZM196.5 470.749L197.373 410.022L194.373 409.978L193.5 470.705L196.5 470.749ZM195.031 469.227L195.024 469.227L194.976 472.227L194.982 472.227L195.031 469.227ZM196.5 471.293L196.506 470.745L193.506 470.71L193.5 471.258L196.5 471.293ZM229.84 470.232L195.02 469.776L194.98 472.776L229.801 473.232L229.84 470.232ZM228.332 470.715L228.32 471.715L231.32 471.75L231.332 470.75L228.332 470.715ZM195.987 471.789L229.812 472.232L229.852 469.233L196.026 468.789L195.987 471.789ZM195.373 409.995L194.507 470.267L197.506 470.31L198.373 410.038L195.373 409.995ZM195.849 411.5L196.848 411.516L196.897 408.516L195.897 408.5L195.849 411.5Z" fill="url(#paint88_linear_6_2501)"/>
<path fill-rule="evenodd" clip-rule="evenodd" d="M271.569 411.078C271.678 410.824 271.968 410.716 272.217 410.836C272.44 410.944 272.554 411.199 272.496 411.434L273.061 411.161L298.946 471.556L298.046 471.992L287.53 447.456C287.439 447.557 287.307 447.62 287.16 447.62H257.549V446.62H287.16L287.172 446.62L272.298 411.915L246.979 470.99C246.87 471.244 246.58 471.352 246.332 471.232C246.083 471.111 245.97 470.808 246.078 470.554L271.569 411.078Z" fill="url(#paint89_linear_6_2501)"/>
<path d="M272.217 410.836L271.564 412.187L271.564 412.187L272.217 410.836ZM271.569 411.078L272.948 411.669V411.669L271.569 411.078ZM272.496 411.434L271.039 411.077C270.901 411.641 271.101 412.234 271.553 412.6C272.004 412.965 272.626 413.037 273.149 412.784L272.496 411.434ZM273.061 411.161L274.44 410.57C274.279 410.193 273.97 409.899 273.587 409.756C273.203 409.612 272.777 409.632 272.408 409.81L273.061 411.161ZM298.946 471.556L299.599 472.907C300.321 472.558 300.641 471.702 300.325 470.965L298.946 471.556ZM298.046 471.992L296.667 472.582C296.829 472.959 297.137 473.253 297.521 473.397C297.904 473.54 298.33 473.52 298.699 473.342L298.046 471.992ZM287.53 447.456L288.909 446.865C288.708 446.396 288.282 446.061 287.779 445.977C287.275 445.893 286.763 446.07 286.42 446.448L287.53 447.456ZM257.549 447.62H256.049C256.049 448.449 256.72 449.12 257.549 449.12V447.62ZM257.549 446.62V445.12C256.72 445.12 256.049 445.792 256.049 446.62H257.549ZM287.16 446.62L287.178 445.12C287.172 445.12 287.166 445.12 287.16 445.12V446.62ZM287.172 446.62L287.154 448.12C287.662 448.126 288.138 447.875 288.419 447.454C288.701 447.032 288.751 446.496 288.551 446.03L287.172 446.62ZM272.298 411.915L273.676 411.324C273.44 410.773 272.898 410.415 272.298 410.415C271.698 410.415 271.155 410.773 270.919 411.324L272.298 411.915ZM246.979 470.99L248.357 471.581L248.357 471.581L246.979 470.99ZM246.332 471.232L245.679 472.582H245.679L246.332 471.232ZM246.078 470.554L247.457 471.145L247.457 471.145L246.078 470.554ZM272.87 409.486C271.851 408.993 270.636 409.447 270.191 410.487L272.948 411.669C272.72 412.201 272.085 412.439 271.564 412.187L272.87 409.486ZM273.953 411.791C274.175 410.887 273.747 409.91 272.87 409.486L271.564 412.187C271.132 411.978 270.933 411.511 271.039 411.077L273.953 411.791ZM272.408 409.81L271.843 410.084L273.149 412.784L273.714 412.511L272.408 409.81ZM300.325 470.965L274.44 410.57L271.683 411.752L297.567 472.147L300.325 470.965ZM298.699 473.342L299.599 472.907L298.293 470.206L297.393 470.641L298.699 473.342ZM286.152 448.047L296.667 472.582L299.425 471.401L288.909 446.865L286.152 448.047ZM287.16 449.12C287.747 449.12 288.277 448.865 288.641 448.465L286.42 446.448C286.601 446.249 286.867 446.12 287.16 446.12V449.12ZM257.549 449.12H287.16V446.12H257.549V449.12ZM256.049 446.62V447.62H259.049V446.62H256.049ZM287.16 445.12H257.549V448.12H287.16V445.12ZM287.19 445.121L287.178 445.12L287.142 448.12L287.154 448.12L287.19 445.121ZM270.919 412.506L285.793 447.211L288.551 446.03L273.676 411.324L270.919 412.506ZM248.357 471.581L273.676 412.506L270.919 411.324L245.6 470.399L248.357 471.581ZM245.679 472.582C246.697 473.075 247.912 472.621 248.357 471.581L245.6 470.399C245.828 469.867 246.463 469.629 246.985 469.881L245.679 472.582ZM244.7 469.964C244.275 470.954 244.708 472.113 245.679 472.582L246.985 469.881C247.458 470.11 247.664 470.662 247.457 471.145L244.7 469.964ZM270.191 410.487L244.7 469.964L247.457 471.145L272.948 411.669L270.191 410.487Z" fill="url(#paint90_linear_6_2501)"/>
<path fill-rule="evenodd" clip-rule="evenodd" d="M321.718 414.676C330.33 414.39 336.202 415.381 339.94 417.373C341.929 418.433 343.295 419.767 344.177 421.346C345.064 422.933 345.513 424.863 345.513 427.185C345.513 427.663 345.518 428.118 345.523 428.553C345.541 430.032 345.555 431.285 345.35 432.466C345.106 433.874 344.562 435.035 343.293 436.038C341.958 437.092 339.707 438.061 335.856 438.752C332.432 439.366 327.849 439.742 321.718 439.816V414.676ZM319.387 412.234L319.362 411.777C329.321 411.23 336.557 412.17 341.351 414.726C343.782 416.021 345.599 417.74 346.796 419.882C347.988 422.016 348.513 424.477 348.513 427.185C348.513 427.564 348.518 427.953 348.523 428.349V428.349V428.349C348.542 429.875 348.563 431.498 348.306 432.978C347.962 434.961 347.112 436.843 345.153 438.391C343.305 439.852 340.583 440.924 336.67 441.653C339.78 442.045 342.413 442.662 344.594 443.53C347.359 444.63 349.478 446.166 350.893 448.232C352.309 450.299 352.926 452.76 352.926 455.545L352.926 455.72C352.927 459.619 352.928 464.901 348.381 468.64C343.886 472.336 335.34 474.204 319.315 472.816L319.372 472.154H318.718V412.234H319.387ZM321.718 469.996V444.218C331.969 443.848 338.996 444.53 343.484 446.317C345.847 447.257 347.421 448.472 348.418 449.927C349.413 451.38 349.926 453.209 349.926 455.545C349.926 459.657 349.855 463.544 346.475 466.323C343.136 469.069 336.206 471.023 321.718 469.996Z" fill="url(#paint91_linear_6_2501)"/>
<circle cx="271.5" cy="271.5" r="267.5" stroke="url(#paint92_linear_6_2501)" stroke-width="8"/>
<path d="M516 271C516 405.209 407.649 514 274 514C140.351 514 32 405.209 32 271C32 136.791 140.351 28 274 28C407.649 28 516 136.791 516 271Z" stroke="url(#paint93_linear_6_2501)" stroke-width="2"/>
<defs>
<linearGradient id="paint0_linear_6_2501" x1="256.047" y1="125.074" x2="207.523" y2="109.386" gradientUnits="userSpaceOnUse">
<stop stop-color="#DAA520"/>
<stop offset="1" stop-color="#61480A" stop-opacity="0.74"/>
</linearGradient>
<linearGradient id="paint1_linear_6_2501" x1="303.619" y1="89.1204" x2="261.578" y2="142.737" gradientUnits="userSpaceOnUse">
<stop stop-color="#DAA520"/>
<stop offset="1" stop-color="#61480A" stop-opacity="0.74"/>
</linearGradient>
<linearGradient id="paint2_linear_6_2501" x1="333.828" y1="216.166" x2="261.563" y2="193.745" gradientUnits="userSpaceOnUse">
<stop stop-color="#DAA520"/>
<stop offset="1" stop-color="#61480A" stop-opacity="0.74"/>
</linearGradient>
<linearGradient id="paint3_linear_6_2501" x1="327.65" y1="237.811" x2="267.338" y2="213.001" gradientUnits="userSpaceOnUse">
<stop stop-color="#DAA520"/>
<stop offset="1" stop-color="#61480A" stop-opacity="0.74"/>
</linearGradient>
<linearGradient id="paint4_linear_6_2501" x1="259.33" y1="149.192" x2="259.153" y2="157.365" gradientUnits="userSpaceOnUse">
<stop stop-color="#DAA520"/>
<stop offset="1" stop-color="#61480A" stop-opacity="0.74"/>
</linearGradient>
<linearGradient id="paint5_linear_6_2501" x1="259.213" y1="157.068" x2="259.213" y2="173.934" gradientUnits="userSpaceOnUse">
<stop stop-color="#DAA520"/>
<stop offset="1" stop-color="#61480A" stop-opacity="0.74"/>
</linearGradient>
<linearGradient id="paint6_linear_6_2501" x1="256.047" y1="125.074" x2="207.523" y2="109.386" gradientUnits="userSpaceOnUse">
<stop stop-color="#DAA520"/>
<stop offset="1" stop-color="#61480A" stop-opacity="0.74"/>
</linearGradient>
<linearGradient id="paint7_linear_6_2501" x1="303.619" y1="89.1204" x2="261.578" y2="142.737" gradientUnits="userSpaceOnUse">
<stop stop-color="#DAA520"/>
<stop offset="1" stop-color="#61480A" stop-opacity="0.74"/>
</linearGradient>
<linearGradient id="paint8_linear_6_2501" x1="333.828" y1="216.166" x2="261.563" y2="193.745" gradientUnits="userSpaceOnUse">
<stop stop-color="#DAA520"/>
<stop offset="1" stop-color="#61480A" stop-opacity="0.74"/>
</linearGradient>
<linearGradient id="paint9_linear_6_2501" x1="327.65" y1="237.811" x2="267.338" y2="213.001" gradientUnits="userSpaceOnUse">
<stop stop-color="#DAA520"/>
<stop offset="1" stop-color="#61480A" stop-opacity="0.74"/>
</linearGradient>
<linearGradient id="paint10_linear_6_2501" x1="259.33" y1="149.192" x2="259.153" y2="157.365" gradientUnits="userSpaceOnUse">
<stop stop-color="#DAA520"/>
<stop offset="1" stop-color="#61480A" stop-opacity="0.74"/>
</linearGradient>
<linearGradient id="paint11_linear_6_2501" x1="259.213" y1="157.068" x2="259.213" y2="173.934" gradientUnits="userSpaceOnUse">
<stop stop-color="#DAA520"/>
<stop offset="1" stop-color="#61480A" stop-opacity="0.74"/>
</linearGradient>
<linearGradient id="paint12_linear_6_2501" x1="256.047" y1="125.074" x2="207.523" y2="109.386" gradientUnits="userSpaceOnUse">
<stop stop-color="#DAA520"/>
<stop offset="1" stop-color="#5F470D"/>
</linearGradient>
<linearGradient id="paint13_linear_6_2501" x1="303.619" y1="89.1204" x2="261.578" y2="142.737" gradientUnits="userSpaceOnUse">
<stop stop-color="#DAA520"/>
<stop offset="1" stop-color="#5F470D"/>
</linearGradient>
<linearGradient id="paint14_linear_6_2501" x1="333.828" y1="216.166" x2="261.563" y2="193.745" gradientUnits="userSpaceOnUse">
<stop stop-color="#DAA520"/>
<stop offset="1" stop-color="#5F470D"/>
</linearGradient>
<linearGradient id="paint15_linear_6_2501" x1="327.65" y1="237.811" x2="267.338" y2="213.001" gradientUnits="userSpaceOnUse">
<stop stop-color="#DAA520"/>
<stop offset="1" stop-color="#5F470D"/>
</linearGradient>
<linearGradient id="paint16_linear_6_2501" x1="259.193" y1="148.387" x2="259.193" y2="166.335" gradientUnits="userSpaceOnUse">
<stop stop-color="#DAA520"/>
<stop offset="1" stop-color="#5F470D"/>
</linearGradient>
<linearGradient id="paint17_linear_6_2501" x1="259.193" y1="148.387" x2="259.193" y2="166.335" gradientUnits="userSpaceOnUse">
<stop stop-color="#DAA520"/>
<stop offset="1" stop-color="#5F470D"/>
</linearGradient>
<linearGradient id="paint18_linear_6_2501" x1="126.097" y1="407.913" x2="126.097" y2="488.521" gradientUnits="userSpaceOnUse">
<stop stop-color="#DAA520"/>
<stop offset="0.86" stop-color="#826313"/>
<stop offset="1" stop-color="#745811"/>
</linearGradient>
<linearGradient id="paint19_linear_6_2501" x1="193.099" y1="291.109" x2="193.099" y2="364.109" gradientUnits="userSpaceOnUse">
<stop stop-color="#DAA520"/>
<stop offset="1" stop-color="#745811"/>
</linearGradient>
<linearGradient id="paint20_linear_6_2501" x1="376.989" y1="326.265" x2="375.989" y2="326.265" gradientUnits="userSpaceOnUse">
<stop stop-color="#DAA520"/>
<stop offset="1" stop-color="#745811"/>
</linearGradient>
<linearGradient id="paint21_linear_6_2501" x1="23.4326" y1="0" x2="23.4326" y2="1" gradientUnits="userSpaceOnUse">
<stop stop-color="#DAA520"/>
<stop offset="1" stop-color="#745811"/>
</linearGradient>
<linearGradient id="paint22_linear_6_2501" x1="39.6606" y1="0" x2="39.6606" y2="1" gradientUnits="userSpaceOnUse">
<stop stop-color="#DAA520"/>
<stop offset="1" stop-color="#745811"/>
</linearGradient>
<linearGradient id="paint23_linear_6_2501" x1="268.891" y1="291.656" x2="268.891" y2="362.727" gradientUnits="userSpaceOnUse">
<stop stop-color="#DAA520"/>
<stop offset="1" stop-color="#745811"/>
</linearGradient>
<linearGradient id="paint24_linear_6_2501" x1="126.097" y1="407.913" x2="126.097" y2="488.521" gradientUnits="userSpaceOnUse">
<stop stop-color="#DAA520"/>
<stop offset="0.86" stop-color="#826313"/>
<stop offset="1" stop-color="#745811"/>
</linearGradient>
<linearGradient id="paint25_linear_6_2501" x1="193.099" y1="291.109" x2="193.099" y2="364.109" gradientUnits="userSpaceOnUse">
<stop stop-color="#DAA520"/>
<stop offset="1" stop-color="#745811"/>
</linearGradient>
<linearGradient id="paint26_linear_6_2501" x1="338.175" y1="327.859" x2="337.175" y2="327.859" gradientUnits="userSpaceOnUse">
<stop stop-color="#DAA520"/>
<stop offset="1" stop-color="#745811"/>
</linearGradient>
<linearGradient id="paint27_linear_6_2501" x1="339.03" y1="288.97" x2="339.03" y2="289.97" gradientUnits="userSpaceOnUse">
<stop stop-color="#DAA520"/>
<stop offset="1" stop-color="#745811"/>
</linearGradient>
<linearGradient id="paint28_linear_6_2501" x1="376.989" y1="326.265" x2="375.989" y2="326.265" gradientUnits="userSpaceOnUse">
<stop stop-color="#DAA520"/>
<stop offset="1" stop-color="#745811"/>
</linearGradient>
<linearGradient id="paint29_linear_6_2501" x1="23.4326" y1="0" x2="23.4326" y2="1" gradientUnits="userSpaceOnUse">
<stop stop-color="#DAA520"/>
<stop offset="1" stop-color="#745811"/>
</linearGradient>
<linearGradient id="paint30_linear_6_2501" x1="39.6606" y1="0" x2="39.6606" y2="1" gradientUnits="userSpaceOnUse">
<stop stop-color="#DAA520"/>
<stop offset="1" stop-color="#745811"/>
</linearGradient>
<linearGradient id="paint31_linear_6_2501" x1="268.891" y1="291.656" x2="268.891" y2="362.727" gradientUnits="userSpaceOnUse">
<stop stop-color="#DAA520"/>
<stop offset="1" stop-color="#745811"/>
</linearGradient>
<linearGradient id="paint32_linear_6_2501" x1="126.097" y1="407.913" x2="126.097" y2="488.521" gradientUnits="userSpaceOnUse">
<stop stop-color="#DAA520"/>
<stop offset="0.86" stop-color="#826313"/>
<stop offset="1" stop-color="#745811"/>
</linearGradient>
<linearGradient id="paint33_linear_6_2501" x1="193.099" y1="291.109" x2="193.099" y2="364.109" gradientUnits="userSpaceOnUse">
<stop stop-color="#DAA520"/>
<stop offset="1" stop-color="#745811"/>
</linearGradient>
<linearGradient id="paint34_linear_6_2501" x1="338.175" y1="327.859" x2="337.175" y2="327.859" gradientUnits="userSpaceOnUse">
<stop stop-color="#DAA520"/>
<stop offset="1" stop-color="#745811"/>
</linearGradient>
<linearGradient id="paint35_linear_6_2501" x1="339.03" y1="288.97" x2="339.03" y2="289.97" gradientUnits="userSpaceOnUse">
<stop stop-color="#DAA520"/>
<stop offset="1" stop-color="#745811"/>
</linearGradient>
<linearGradient id="paint36_linear_6_2501" x1="376.989" y1="326.265" x2="375.989" y2="326.265" gradientUnits="userSpaceOnUse">
<stop stop-color="#DAA520"/>
<stop offset="1" stop-color="#745811"/>
</linearGradient>
<linearGradient id="paint37_linear_6_2501" x1="23.4326" y1="0" x2="23.4326" y2="1" gradientUnits="userSpaceOnUse">
<stop stop-color="#DAA520"/>
<stop offset="1" stop-color="#745811"/>
</linearGradient>
<linearGradient id="paint38_linear_6_2501" x1="39.6606" y1="0" x2="39.6606" y2="1" gradientUnits="userSpaceOnUse">
<stop stop-color="#DAA520"/>
<stop offset="1" stop-color="#745811"/>
</linearGradient>
<linearGradient id="paint39_linear_6_2501" x1="268.891" y1="291.656" x2="268.891" y2="362.727" gradientUnits="userSpaceOnUse">
<stop stop-color="#DAA520"/>
<stop offset="1" stop-color="#745811"/>
</linearGradient>
<linearGradient id="paint40_linear_6_2501" x1="212.637" y1="410" x2="212.637" y2="470.735" gradientUnits="userSpaceOnUse">
<stop stop-color="#DAA520"/>
<stop offset="1" stop-color="#745811"/>
</linearGradient>
<linearGradient id="paint41_linear_6_2501" x1="212.637" y1="410" x2="212.637" y2="470.735" gradientUnits="userSpaceOnUse">
<stop stop-color="#DAA520"/>
<stop offset="1" stop-color="#745811"/>
</linearGradient>
<linearGradient id="paint42_linear_6_2501" x1="272.434" y1="410.787" x2="272.434" y2="471.652" gradientUnits="userSpaceOnUse">
<stop stop-color="#DAA520"/>
<stop offset="1" stop-color="#745811"/>
</linearGradient>
<linearGradient id="paint43_linear_6_2501" x1="272.434" y1="410.787" x2="272.434" y2="471.652" gradientUnits="userSpaceOnUse">
<stop stop-color="#DAA520"/>
<stop offset="1" stop-color="#745811"/>
</linearGradient>
<linearGradient id="paint44_linear_6_2501" x1="335.824" y1="409.96" x2="335.824" y2="473.275" gradientUnits="userSpaceOnUse">
<stop stop-color="#DAA520"/>
<stop offset="1" stop-color="#745811"/>
</linearGradient>
<linearGradient id="paint45_linear_6_2501" x1="271.5" y1="0" x2="271.5" y2="543" gradientUnits="userSpaceOnUse">
<stop stop-color="#DAA520"/>
<stop offset="1" stop-color="#4E3B0B"/>
</linearGradient>
<linearGradient id="paint46_linear_6_2501" x1="274" y1="27" x2="274" y2="515" gradientUnits="userSpaceOnUse">
<stop stop-color="#DAA520"/>
<stop offset="1" stop-color="#4E3B0B"/>
</linearGradient>
<linearGradient id="paint47_linear_6_2501" x1="256.047" y1="125.074" x2="207.523" y2="109.386" gradientUnits="userSpaceOnUse">
<stop stop-color="#DAA520"/>
<stop offset="1" stop-color="#61480A" stop-opacity="0.74"/>
</linearGradient>
<linearGradient id="paint48_linear_6_2501" x1="303.619" y1="89.1204" x2="261.578" y2="142.737" gradientUnits="userSpaceOnUse">
<stop stop-color="#DAA520"/>
<stop offset="1" stop-color="#61480A" stop-opacity="0.74"/>
</linearGradient>
<linearGradient id="paint49_linear_6_2501" x1="333.828" y1="216.166" x2="261.563" y2="193.745" gradientUnits="userSpaceOnUse">
<stop stop-color="#DAA520"/>
<stop offset="1" stop-color="#61480A" stop-opacity="0.74"/>
</linearGradient>
<linearGradient id="paint50_linear_6_2501" x1="327.65" y1="237.811" x2="267.338" y2="213.001" gradientUnits="userSpaceOnUse">
<stop stop-color="#DAA520"/>
<stop offset="1" stop-color="#61480A" stop-opacity="0.74"/>
</linearGradient>
<linearGradient id="paint51_linear_6_2501" x1="259.33" y1="149.192" x2="259.153" y2="157.365" gradientUnits="userSpaceOnUse">
<stop stop-color="#DAA520"/>
<stop offset="1" stop-color="#61480A" stop-opacity="0.74"/>
</linearGradient>
<linearGradient id="paint52_linear_6_2501" x1="259.213" y1="157.068" x2="259.213" y2="173.934" gradientUnits="userSpaceOnUse">
<stop stop-color="#DAA520"/>
<stop offset="1" stop-color="#61480A" stop-opacity="0.74"/>
</linearGradient>
<linearGradient id="paint53_linear_6_2501" x1="256.047" y1="125.074" x2="207.523" y2="109.386" gradientUnits="userSpaceOnUse">
<stop stop-color="#DAA520"/>
<stop offset="1" stop-color="#61480A" stop-opacity="0.74"/>
</linearGradient>
<linearGradient id="paint54_linear_6_2501" x1="303.619" y1="89.1204" x2="261.578" y2="142.737" gradientUnits="userSpaceOnUse">
<stop stop-color="#DAA520"/>
<stop offset="1" stop-color="#61480A" stop-opacity="0.74"/>
</linearGradient>
<linearGradient id="paint55_linear_6_2501" x1="333.828" y1="216.166" x2="261.563" y2="193.745" gradientUnits="userSpaceOnUse">
<stop stop-color="#DAA520"/>
<stop offset="1" stop-color="#61480A" stop-opacity="0.74"/>
</linearGradient>
<linearGradient id="paint56_linear_6_2501" x1="327.65" y1="237.811" x2="267.338" y2="213.001" gradientUnits="userSpaceOnUse">
<stop stop-color="#DAA520"/>
<stop offset="1" stop-color="#61480A" stop-opacity="0.74"/>
</linearGradient>
<linearGradient id="paint57_linear_6_2501" x1="259.33" y1="149.192" x2="259.153" y2="157.365" gradientUnits="userSpaceOnUse">
<stop stop-color="#DAA520"/>
<stop offset="1" stop-color="#61480A" stop-opacity="0.74"/>
</linearGradient>
<linearGradient id="paint58_linear_6_2501" x1="259.213" y1="157.068" x2="259.213" y2="173.934" gradientUnits="userSpaceOnUse">
<stop stop-color="#DAA520"/>
<stop offset="1" stop-color="#61480A" stop-opacity="0.74"/>
</linearGradient>
<linearGradient id="paint59_linear_6_2501" x1="256.047" y1="125.074" x2="207.523" y2="109.386" gradientUnits="userSpaceOnUse">
<stop stop-color="#DAA520"/>
<stop offset="1" stop-color="#5F470D"/>
</linearGradient>
<linearGradient id="paint60_linear_6_2501" x1="303.619" y1="89.1204" x2="261.578" y2="142.737" gradientUnits="userSpaceOnUse">
<stop stop-color="#DAA520"/>
<stop offset="1" stop-color="#5F470D"/>
</linearGradient>
<linearGradient id="paint61_linear_6_2501" x1="333.828" y1="216.166" x2="261.563" y2="193.745" gradientUnits="userSpaceOnUse">
<stop stop-color="#DAA520"/>
<stop offset="1" stop-color="#5F470D"/>
</linearGradient>
<linearGradient id="paint62_linear_6_2501" x1="327.65" y1="237.811" x2="267.338" y2="213.001" gradientUnits="userSpaceOnUse">
<stop stop-color="#DAA520"/>
<stop offset="1" stop-color="#5F470D"/>
</linearGradient>
<linearGradient id="paint63_linear_6_2501" x1="259.178" y1="149.887" x2="259.178" y2="164.835" gradientUnits="userSpaceOnUse">
<stop stop-color="#DAA520"/>
<stop offset="1" stop-color="#5F470D"/>
</linearGradient>
<linearGradient id="paint64_linear_6_2501" x1="259.178" y1="149.887" x2="259.178" y2="164.835" gradientUnits="userSpaceOnUse">
<stop stop-color="#DAA520"/>
<stop offset="1" stop-color="#5F470D"/>
</linearGradient>
<linearGradient id="paint65_linear_6_2501" x1="126.097" y1="407.913" x2="126.097" y2="488.521" gradientUnits="userSpaceOnUse">
<stop stop-color="#DAA520"/>
<stop offset="0.86" stop-color="#826313"/>
<stop offset="1" stop-color="#745811"/>
</linearGradient>
<linearGradient id="paint66_linear_6_2501" x1="193.099" y1="291.109" x2="193.099" y2="364.109" gradientUnits="userSpaceOnUse">
<stop stop-color="#DAA520"/>
<stop offset="1" stop-color="#745811"/>
</linearGradient>
<linearGradient id="paint67_linear_6_2501" x1="376.989" y1="326.265" x2="375.989" y2="326.265" gradientUnits="userSpaceOnUse">
<stop stop-color="#DAA520"/>
<stop offset="1" stop-color="#745811"/>
</linearGradient>
<linearGradient id="paint68_linear_6_2501" x1="23.4326" y1="0" x2="23.4326" y2="1" gradientUnits="userSpaceOnUse">
<stop stop-color="#DAA520"/>
<stop offset="1" stop-color="#745811"/>
</linearGradient>
<linearGradient id="paint69_linear_6_2501" x1="39.6606" y1="0" x2="39.6606" y2="1" gradientUnits="userSpaceOnUse">
<stop stop-color="#DAA520"/>
<stop offset="1" stop-color="#745811"/>
</linearGradient>
<linearGradient id="paint70_linear_6_2501" x1="268.891" y1="291.656" x2="268.891" y2="362.727" gradientUnits="userSpaceOnUse">
<stop stop-color="#DAA520"/>
<stop offset="1" stop-color="#745811"/>
</linearGradient>
<linearGradient id="paint71_linear_6_2501" x1="126.097" y1="407.913" x2="126.097" y2="488.521" gradientUnits="userSpaceOnUse">
<stop stop-color="#DAA520"/>
<stop offset="0.86" stop-color="#826313"/>
<stop offset="1" stop-color="#745811"/>
</linearGradient>
<linearGradient id="paint72_linear_6_2501" x1="193.099" y1="291.109" x2="193.099" y2="364.109" gradientUnits="userSpaceOnUse">
<stop stop-color="#DAA520"/>
<stop offset="1" stop-color="#745811"/>
</linearGradient>
<linearGradient id="paint73_linear_6_2501" x1="338.175" y1="327.859" x2="337.175" y2="327.859" gradientUnits="userSpaceOnUse">
<stop stop-color="#DAA520"/>
<stop offset="1" stop-color="#745811"/>
</linearGradient>
<linearGradient id="paint74_linear_6_2501" x1="339.03" y1="288.97" x2="339.03" y2="289.97" gradientUnits="userSpaceOnUse">
<stop stop-color="#DAA520"/>
<stop offset="1" stop-color="#745811"/>
</linearGradient>
<linearGradient id="paint75_linear_6_2501" x1="376.989" y1="326.265" x2="375.989" y2="326.265" gradientUnits="userSpaceOnUse">
<stop stop-color="#DAA520"/>
<stop offset="1" stop-color="#745811"/>
</linearGradient>
<linearGradient id="paint76_linear_6_2501" x1="23.4326" y1="0" x2="23.4326" y2="1" gradientUnits="userSpaceOnUse">
<stop stop-color="#DAA520"/>
<stop offset="1" stop-color="#745811"/>
</linearGradient>
<linearGradient id="paint77_linear_6_2501" x1="39.6606" y1="0" x2="39.6606" y2="1" gradientUnits="userSpaceOnUse">
<stop stop-color="#DAA520"/>
<stop offset="1" stop-color="#745811"/>
</linearGradient>
<linearGradient id="paint78_linear_6_2501" x1="268.891" y1="291.656" x2="268.891" y2="362.727" gradientUnits="userSpaceOnUse">
<stop stop-color="#DAA520"/>
<stop offset="1" stop-color="#745811"/>
</linearGradient>
<linearGradient id="paint79_linear_6_2501" x1="126.097" y1="407.913" x2="126.097" y2="488.521" gradientUnits="userSpaceOnUse">
<stop stop-color="#DAA520"/>
<stop offset="0.86" stop-color="#826313"/>
<stop offset="1" stop-color="#745811"/>
</linearGradient>
<linearGradient id="paint80_linear_6_2501" x1="193.099" y1="291.109" x2="193.099" y2="364.109" gradientUnits="userSpaceOnUse">
<stop stop-color="#DAA520"/>
<stop offset="1" stop-color="#745811"/>
</linearGradient>
<linearGradient id="paint81_linear_6_2501" x1="338.175" y1="327.859" x2="337.175" y2="327.859" gradientUnits="userSpaceOnUse">
<stop stop-color="#DAA520"/>
<stop offset="1" stop-color="#745811"/>
</linearGradient>
<linearGradient id="paint82_linear_6_2501" x1="339.03" y1="288.97" x2="339.03" y2="289.97" gradientUnits="userSpaceOnUse">
<stop stop-color="#DAA520"/>
<stop offset="1" stop-color="#745811"/>
</linearGradient>
<linearGradient id="paint83_linear_6_2501" x1="376.989" y1="326.265" x2="375.989" y2="326.265" gradientUnits="userSpaceOnUse">
<stop stop-color="#DAA520"/>
<stop offset="1" stop-color="#745811"/>
</linearGradient>
<linearGradient id="paint84_linear_6_2501" x1="23.4326" y1="0" x2="23.4326" y2="1" gradientUnits="userSpaceOnUse">
<stop stop-color="#DAA520"/>
<stop offset="1" stop-color="#745811"/>
</linearGradient>
<linearGradient id="paint85_linear_6_2501" x1="39.6606" y1="0" x2="39.6606" y2="1" gradientUnits="userSpaceOnUse">
<stop stop-color="#DAA520"/>
<stop offset="1" stop-color="#745811"/>
</linearGradient>
<linearGradient id="paint86_linear_6_2501" x1="268.891" y1="291.656" x2="268.891" y2="362.727" gradientUnits="userSpaceOnUse">
<stop stop-color="#DAA520"/>
<stop offset="1" stop-color="#745811"/>
</linearGradient>
<linearGradient id="paint87_linear_6_2501" x1="212.637" y1="410" x2="212.637" y2="470.735" gradientUnits="userSpaceOnUse">
<stop stop-color="#DAA520"/>
<stop offset="1" stop-color="#745811"/>
</linearGradient>
<linearGradient id="paint88_linear_6_2501" x1="212.637" y1="410" x2="212.637" y2="470.735" gradientUnits="userSpaceOnUse">
<stop stop-color="#DAA520"/>
<stop offset="1" stop-color="#745811"/>
</linearGradient>
<linearGradient id="paint89_linear_6_2501" x1="272.434" y1="410.787" x2="272.434" y2="471.652" gradientUnits="userSpaceOnUse">
<stop stop-color="#DAA520"/>
<stop offset="1" stop-color="#745811"/>
</linearGradient>
<linearGradient id="paint90_linear_6_2501" x1="272.434" y1="410.787" x2="272.434" y2="471.652" gradientUnits="userSpaceOnUse">
<stop stop-color="#DAA520"/>
<stop offset="1" stop-color="#745811"/>
</linearGradient>
<linearGradient id="paint91_linear_6_2501" x1="335.824" y1="409.96" x2="335.824" y2="473.275" gradientUnits="userSpaceOnUse">
<stop stop-color="#DAA520"/>
<stop offset="1" stop-color="#745811"/>
</linearGradient>
<linearGradient id="paint92_linear_6_2501" x1="271.5" y1="0" x2="271.5" y2="543" gradientUnits="userSpaceOnUse">
<stop stop-color="#DAA520"/>
<stop offset="1" stop-color="#4E3B0B"/>
</linearGradient>
<linearGradient id="paint93_linear_6_2501" x1="274" y1="27" x2="274" y2="515" gradientUnits="userSpaceOnUse">
<stop stop-color="#DAA520"/>
<stop offset="1" stop-color="#4E3B0B"/>
</linearGradient>
</defs>
</svg>
